<svg width="16" height="18" viewBox="0 0 16 18" fill="none" xmlns="http://www.w3.org/2000/svg">
<path d="M6.69075 11.7157L6.68646 11.7057C6.60024 11.6853 6.5145 11.6629 6.42932 11.6385L6.42289 11.6364C5.6081 11.4022 4.85563 10.9896 4.22004 10.4285C3.52103 9.8119 2.98348 9.03364 2.65425 8.16159C2.32503 7.28955 2.21414 6.35021 2.33123 5.42547C2.44833 4.50074 2.78987 3.61868 3.32606 2.85623C3.86226 2.09377 4.57683 1.47405 5.40748 1.05112C6.23812 0.628181 7.15962 0.414865 8.09162 0.42977C9.02362 0.444674 9.93783 0.687346 10.7545 1.13663C11.5712 1.58591 12.2656 2.22815 12.7772 3.00737C13.2887 3.78658 13.6019 4.6791 13.6893 5.60711C13.7172 5.90211 13.475 6.14282 13.1786 6.14282C12.8829 6.14282 12.6465 5.90211 12.6122 5.60782C12.5178 4.79589 12.2106 4.02327 11.7219 3.36808C11.2331 2.71289 10.5801 2.19834 9.82871 1.87645C9.07735 1.55456 8.25433 1.43675 7.44283 1.53491C6.63134 1.63308 5.86015 1.94374 5.20721 2.4355C4.55428 2.92726 4.04274 3.58269 3.72432 4.33552C3.40589 5.08836 3.29187 5.91192 3.39376 6.72295C3.49566 7.53398 3.80987 8.30374 4.30464 8.9544C4.7994 9.60507 5.45717 10.1136 6.21146 10.4285L6.24004 10.4407C6.38289 10.4993 6.52956 10.5509 6.68004 10.5957C6.80646 10.2902 7.03494 10.038 7.3265 9.88212C7.61807 9.72625 7.95468 9.67632 8.27894 9.74087C8.6032 9.80542 8.89503 9.98044 9.10468 10.2361C9.31432 10.4917 9.42881 10.8122 9.42861 11.1428C9.42892 11.4711 9.31615 11.7895 9.10925 12.0445C8.90235 12.2994 8.61396 12.4753 8.29261 12.5425C7.97125 12.6097 7.63654 12.5642 7.3448 12.4136C7.05306 12.2631 6.82209 12.0166 6.69075 11.7157ZM5.98646 12.6243C4.71756 12.2296 3.59246 11.4711 2.75075 10.4428C2.22912 10.5039 1.74809 10.7545 1.39901 11.1469C1.04993 11.5393 0.857113 12.0462 0.857178 12.5714V13.0821C0.857178 15.7378 3.86432 17.5714 8.00004 17.5714C12.1357 17.5714 15.1429 15.6371 15.1429 13.0821V12.5714C15.1429 12.0031 14.9171 11.458 14.5153 11.0562C14.1134 10.6543 13.5684 10.4285 13 10.4285H10.3965C10.565 10.9928 10.5288 11.5985 10.2944 12.1388C10.06 12.6791 9.64242 13.1192 9.11522 13.3817C8.58803 13.6442 7.98509 13.7122 7.4127 13.5736C6.84031 13.435 6.33522 13.0988 5.98646 12.6243ZM11.5715 6.14282C11.5715 5.06282 11.0929 4.09497 10.335 3.43997C9.95478 3.11194 9.50963 2.86779 9.02863 2.72346C8.54762 2.57914 8.04159 2.53787 7.54356 2.60236C7.04553 2.66685 6.5667 2.83565 6.13833 3.09773C5.70995 3.35982 5.34166 3.7093 5.05751 4.12336C4.77335 4.53742 4.57971 5.00675 4.48922 5.50072C4.39874 5.99469 4.41345 6.50219 4.53239 6.99009C4.65133 7.47799 4.87182 7.93532 5.17949 8.33223C5.48715 8.72914 5.87506 9.0567 6.31789 9.29354C6.77811 8.87488 7.37789 8.64286 8.00004 8.64282C8.62243 8.64268 9.2225 8.87471 9.68289 9.29354C10.2536 8.98868 10.7307 8.53453 11.0633 7.9796C11.3959 7.42467 11.5716 6.78981 11.5715 6.14282Z" fill="#EE7325"/>
</svg>
