<svg width="14" height="20" viewBox="0 0 14 20" fill="none" xmlns="http://www.w3.org/2000/svg">
<path fill-rule="evenodd" clip-rule="evenodd" d="M2.33325 0.833332C1.22868 0.833332 0.333252 1.72876 0.333252 2.83333V17.1667C0.333252 18.2712 1.22868 19.1667 2.33325 19.1667H11.6666C12.7712 19.1667 13.6666 18.2712 13.6666 17.1667V2.83333C13.6666 1.72876 12.7712 0.833332 11.6666 0.833332H2.33325ZM9.50024 4.58338C9.50024 5.27377 8.94059 5.83343 8.25019 5.83343C7.5598 5.83343 7.00015 5.27377 7.00015 4.58338C7.00015 3.89299 7.5598 3.33333 8.25019 3.33333C8.94059 3.33333 9.50024 3.89299 9.50024 4.58338ZM3.74195 12.5001L4.12738 11.6011C4.3339 12.0501 4.66568 12.4444 5.11674 12.7108L5.39461 12.8749L5.1657 13.4092C4.9696 13.8689 4.51828 14.1668 4.01696 14.1668H1.99995C1.53978 14.1668 1.16659 13.7936 1.16659 13.3335C1.16659 12.8733 1.53978 12.5001 1.99995 12.5001H3.74195ZM10.0203 9.16663H11.167C11.6271 9.16663 12.0003 9.53956 12.0003 9.99974C12.0003 10.4599 11.6271 10.8331 11.167 10.8331H9.76093C9.28721 10.8331 8.84657 10.5584 8.63823 10.1328L8.11035 9.05387L7.29495 11.0925L8.8898 12.0337C9.3781 12.3282 9.60728 12.9092 9.45337 13.4501L8.62938 16.082C8.51765 16.4383 8.18899 16.6667 7.83455 16.6667C7.752 16.6667 7.66814 16.6542 7.58506 16.6281C7.14599 16.4906 6.90144 16.0232 7.03895 15.5841L7.75434 13.2993L5.54123 11.9928C4.8222 11.5683 4.52765 10.669 4.85631 9.9013L5.83187 7.62543L5.44904 7.51162C5.24513 7.46318 4.99069 7.51813 4.79095 7.67152L3.75731 8.46348C3.39219 8.74318 2.86952 8.67469 2.58904 8.30931C2.30856 7.94393 2.37783 7.42099 2.74321 7.14103L3.77632 6.34907C4.37713 5.88838 5.1446 5.72561 5.88161 5.9027L7.73273 6.45325C8.41843 6.62799 9.01611 7.11447 9.34164 7.77986L10.0203 9.16663Z" fill="#EE7325"/>
</svg>
