<svg width="16" height="19" viewBox="0 0 16 19" fill="none" xmlns="http://www.w3.org/2000/svg">
<path d="M8.83333 0.833333V5.83333C8.83333 6.27536 9.00893 6.69928 9.32149 7.01184C9.63405 7.3244 10.058 7.5 10.5 7.5H15.5V15.8333C15.5 16.2754 15.3244 16.6993 15.0118 17.0118C14.6993 17.3244 14.2754 17.5 13.8333 17.5H8.79167C8.81944 17.365 8.83333 17.2261 8.83333 17.0833V12.9167C8.83343 12.4364 8.66759 11.9708 8.36388 11.5988C8.06016 11.2267 7.63724 10.9711 7.16667 10.875V10.8333C7.16675 10.2539 6.99425 9.68757 6.67116 9.20658C6.34806 8.72558 5.88903 8.35172 5.35259 8.13268C4.81616 7.91363 4.22664 7.85933 3.65921 7.9767C3.09179 8.09407 2.57219 8.37779 2.16667 8.79167V2.5C2.16667 2.05797 2.34226 1.63405 2.65482 1.32149C2.96738 1.00893 3.39131 0.833333 3.83333 0.833333H8.83333ZM10.0833 1.25V5.83333C10.0833 5.94384 10.1272 6.04982 10.2054 6.12796C10.2835 6.2061 10.3895 6.25 10.5 6.25H15.0833L10.0833 1.25ZM2.16667 11.6667H1.75C1.41848 11.6667 1.10054 11.7984 0.866117 12.0328C0.631696 12.2672 0.5 12.5851 0.5 12.9167V17.0833C0.5 17.4149 0.631696 17.7328 0.866117 17.9672C1.10054 18.2016 1.41848 18.3333 1.75 18.3333H6.75C7.08152 18.3333 7.39946 18.2016 7.63388 17.9672C7.8683 17.7328 8 17.4149 8 17.0833V12.9167C8 12.5851 7.8683 12.2672 7.63388 12.0328C7.39946 11.7984 7.08152 11.6667 6.75 11.6667H6.33333V10.8333C6.33333 10.2808 6.11384 9.75089 5.72314 9.36019C5.33244 8.96949 4.80253 8.75 4.25 8.75C3.69747 8.75 3.16756 8.96949 2.77686 9.36019C2.38616 9.75089 2.16667 10.2808 2.16667 10.8333V11.6667ZM3.41667 10.8333C3.41667 10.6123 3.50446 10.4004 3.66074 10.2441C3.81702 10.0878 4.02899 10 4.25 10C4.47101 10 4.68298 10.0878 4.83926 10.2441C4.99554 10.4004 5.08333 10.6123 5.08333 10.8333V11.6667H3.41667V10.8333ZM5.08333 15C5.08333 15.221 4.99554 15.433 4.83926 15.5893C4.68298 15.7455 4.47101 15.8333 4.25 15.8333C4.02899 15.8333 3.81702 15.7455 3.66074 15.5893C3.50446 15.433 3.41667 15.221 3.41667 15C3.41667 14.779 3.50446 14.567 3.66074 14.4107C3.81702 14.2545 4.02899 14.1667 4.25 14.1667C4.47101 14.1667 4.68298 14.2545 4.83926 14.4107C4.99554 14.567 5.08333 14.779 5.08333 15Z" fill="#EE7325"/>
</svg>
