<svg width="14" height="18" viewBox="0 0 14 18" fill="none" xmlns="http://www.w3.org/2000/svg">
<path fill-rule="evenodd" clip-rule="evenodd" d="M6.93047 0.666668V6.08333C6.93047 6.41486 7.0608 6.7328 7.29278 6.96722C7.52475 7.20164 7.83939 7.33334 8.16745 7.33334H13.5277V15.6667C13.5277 16.1087 13.3539 16.5326 13.0446 16.8452C12.7353 17.1577 12.3158 17.3333 11.8784 17.3333H1.98256C1.54513 17.3333 1.12563 17.1577 0.816322 16.8452C0.507018 16.5326 0.333252 16.1087 0.333252 15.6667V2.33333C0.333252 1.89131 0.507018 1.46738 0.816322 1.15482C1.12563 0.842263 1.54513 0.666668 1.98256 0.666668H6.93047ZM8.57978 0.702501C8.89222 0.769464 9.1787 0.926661 9.40443 1.155L13.0444 4.83333C13.2704 5.06144 13.426 5.35094 13.4922 5.66667H8.57978V0.702501ZM2.75683 10.3257C2.75683 9.90729 3.09601 9.56811 3.51441 9.56811H6.16592C6.58432 9.56811 6.9235 9.90729 6.9235 10.3257C6.9235 10.7441 6.58432 11.0833 6.16592 11.0833H3.51441C3.09601 11.0833 2.75683 10.7441 2.75683 10.3257ZM3.51441 12.068C3.09601 12.068 2.75683 12.4072 2.75683 12.8256C2.75683 13.244 3.09601 13.5832 3.51441 13.5832H8.66592C9.08432 13.5832 9.4235 13.244 9.4235 12.8256C9.4235 12.4072 9.08432 12.068 8.66593 12.068H3.51441Z" fill="#EE7325"/>
</svg>
