<svg width="20" height="20" viewBox="0 0 20 20" fill="none" xmlns="http://www.w3.org/2000/svg">
<path d="M10.8333 13.3333H9.16663C8.70829 13.3333 8.33329 12.9583 8.33329 12.5H2.50829V15.8333C2.50829 16.75 3.25829 17.5 4.17496 17.5H15.8333C16.75 17.5 17.5 16.75 17.5 15.8333V12.5H11.6666C11.6666 12.9583 11.2916 13.3333 10.8333 13.3333ZM16.6666 5.83333H13.3333C13.3333 3.99167 11.8416 2.5 9.99996 2.5C8.15829 2.5 6.66663 3.99167 6.66663 5.83333H3.33329C2.41663 5.83333 1.66663 6.58333 1.66663 7.5V10C1.66663 10.925 2.40829 11.6667 3.33329 11.6667H8.33329V10.8333C8.33329 10.375 8.70829 10 9.16663 10H10.8333C11.2916 10 11.6666 10.375 11.6666 10.8333V11.6667H16.6666C17.5833 11.6667 18.3333 10.9167 18.3333 10V7.5C18.3333 6.58333 17.5833 5.83333 16.6666 5.83333ZM8.33329 5.83333C8.33329 4.91667 9.08329 4.16667 9.99996 4.16667C10.9166 4.16667 11.6666 4.91667 11.6666 5.83333H8.32496H8.33329Z" fill="#828282"/>
</svg>
