<svg width="20" height="20" viewBox="0 0 20 20" fill="none" xmlns="http://www.w3.org/2000/svg">
<path d="M10 12.5C11.3807 12.5 12.5 11.3807 12.5 10C12.5 8.61929 11.3807 7.5 10 7.5C8.61929 7.5 7.5 8.61929 7.5 10C7.5 11.3807 8.61929 12.5 10 12.5Z" fill="#EE7325"/>
<path d="M16.6666 3.33334H14.025L12.9916 2.20834C12.6833 1.86667 12.2333 1.66667 11.7666 1.66667H8.23329C7.76663 1.66667 7.31663 1.86667 6.99996 2.20834L5.97496 3.33334H3.33329C2.41663 3.33334 1.66663 4.08334 1.66663 5V15C1.66663 15.9167 2.41663 16.6667 3.33329 16.6667H16.6666C17.5833 16.6667 18.3333 15.9167 18.3333 15V5C18.3333 4.08334 17.5833 3.33334 16.6666 3.33334ZM9.99996 14.1667C7.69996 14.1667 5.83329 12.3 5.83329 10C5.83329 7.7 7.69996 5.83334 9.99996 5.83334C12.3 5.83334 14.1666 7.7 14.1666 10C14.1666 12.3 12.3 14.1667 9.99996 14.1667Z" fill="#EE7325"/>
</svg>
