<svg width="20" height="20" viewBox="0 0 20 20" fill="none" xmlns="http://www.w3.org/2000/svg">
<path d="M15 6.66667H14.1667V5C14.1667 2.7 12.3 0.833332 10 0.833332C7.70004 0.833332 5.83337 2.7 5.83337 5V6.66667H5.00004C4.08337 6.66667 3.33337 7.41667 3.33337 8.33333V16.6667C3.33337 17.5833 4.08337 18.3333 5.00004 18.3333H15C15.9167 18.3333 16.6667 17.5833 16.6667 16.6667V8.33333C16.6667 7.41667 15.9167 6.66667 15 6.66667ZM10 14.1667C9.08337 14.1667 8.33337 13.4167 8.33337 12.5C8.33337 11.5833 9.08337 10.8333 10 10.8333C10.9167 10.8333 11.6667 11.5833 11.6667 12.5C11.6667 13.4167 10.9167 14.1667 10 14.1667ZM7.50004 6.66667V5C7.50004 3.61667 8.61671 2.5 10 2.5C11.3834 2.5 12.5 3.61667 12.5 5V6.66667H7.50004Z" fill="#828282"/>
</svg>
