<svg width="17" height="16" viewBox="0 0 17 16" fill="none" xmlns="http://www.w3.org/2000/svg">
<path d="M13.8334 2.66667H3.16671C2.43337 2.66667 1.83337 3.26667 1.83337 4.00001V12C1.83337 12.7333 2.43337 13.3333 3.16671 13.3333H13.8334C14.5667 13.3333 15.1667 12.7333 15.1667 12V4.00001C15.1667 3.26667 14.5667 2.66667 13.8334 2.66667ZM13.5667 5.50001L9.20671 8.22667C8.77337 8.5 8.22671 8.5 7.79337 8.22667L3.43337 5.50001C3.26671 5.39334 3.16671 5.21334 3.16671 5.02C3.16671 4.57334 3.65337 4.30667 4.03337 4.54L8.50004 7.33334L12.9667 4.54C13.3467 4.30667 13.8334 4.57334 13.8334 5.02C13.8334 5.21334 13.7334 5.39334 13.5667 5.50001Z" fill="#828282"/>
</svg>
