<svg width="20" height="20" viewBox="0 0 20 20" fill="none" xmlns="http://www.w3.org/2000/svg">
<path d="M10 9.99999C10.9167 9.99999 11.6667 9.24999 11.6667 8.33332C11.6667 7.41666 10.9167 6.66666 10 6.66666C9.08337 6.66666 8.33337 7.41666 8.33337 8.33332C8.33337 9.24999 9.08337 9.99999 10 9.99999ZM10 1.66666C13.5 1.66666 16.6667 4.34999 16.6667 8.49999C16.6667 11.15 14.625 14.2667 10.55 17.8583C10.2334 18.1333 9.75837 18.1333 9.44171 17.8583C5.37504 14.2667 3.33337 11.15 3.33337 8.49999C3.33337 4.34999 6.50004 1.66666 10 1.66666Z" fill="#828282"/>
</svg>
