<svg width="16" height="16" viewBox="0 0 16 16" fill="none" xmlns="http://www.w3.org/2000/svg">
<path d="M8 9.33333C9.10667 9.33333 10 8.44 10 7.33333V3.33333C10 2.22666 9.10667 1.33333 8 1.33333C6.89333 1.33333 6 2.22666 6 3.33333V7.33333C6 8.44 6.89333 9.33333 8 9.33333ZM11.94 7.33333C11.6133 7.33333 11.34 7.57333 11.2867 7.9C11.0133 9.46666 9.64667 10.6667 8 10.6667C6.35333 10.6667 4.98667 9.46666 4.71333 7.9C4.66 7.57333 4.38667 7.33333 4.06 7.33333C3.65333 7.33333 3.33333 7.69333 3.39333 8.09333C3.72 10.0933 5.32 11.66 7.33333 11.9467V13.3333C7.33333 13.7 7.63333 14 8 14C8.36667 14 8.66667 13.7 8.66667 13.3333V11.9467C10.68 11.66 12.28 10.0933 12.6067 8.09333C12.6733 7.69333 12.3467 7.33333 11.94 7.33333Z" fill="#EE7325"/>
</svg>
